<?xml version="1.0" standalone="no"?>
<!DOCTYPE svg PUBLIC "-//W3C//DTD SVG 20010904//EN"
 "http://www.w3.org/TR/2001/REC-SVG-20010904/DTD/svg10.dtd">
<svg version="1.0" xmlns="http://www.w3.org/2000/svg"
 width="300.000000pt" height="300.000000pt" viewBox="0 0 300.000000 300.000000"
 preserveAspectRatio="xMidYMid meet">

<g transform="translate(0.000000,300.000000) scale(0.100000,-0.100000)"
fill="#000000" stroke="none">
<path d="M1310 2966 c-52 -7 -104 -16 -115 -19 -11 -4 -34 -9 -51 -12 -58 -9
-189 -57 -290 -105 -362 -173 -642 -497 -762 -880 -57 -183 -65 -239 -65 -450
0 -211 8 -267 65 -450 120 -383 400 -707 762 -880 101 -48 231 -95 290 -106
17 -2 47 -9 66 -13 84 -21 265 -34 368 -26 174 13 179 13 224 26 24 6 53 13
65 14 52 7 180 55 303 115 333 161 618 489 734 843 62 188 70 246 70 477 0
231 -8 289 -70 477 -116 354 -401 682 -734 843 -123 60 -251 108 -303 115 -12
1 -41 8 -65 14 -90 25 -364 34 -492 17z m949 -957 c32 -19 34 -19 46 -2 23 31
36 3 33 -72 -3 -74 -23 -101 -34 -47 -3 17 -19 46 -36 66 -26 31 -35 36 -73
36 -48 0 -65 -17 -65 -63 0 -36 44 -64 129 -84 40 -10 101 -78 101 -113 0
-106 -114 -165 -202 -105 -35 23 -36 24 -41 5 -3 -11 -12 -20 -21 -20 -13 0
-16 14 -17 75 -1 41 -2 81 -3 87 -1 7 6 14 14 16 11 2 19 -11 27 -40 17 -61
50 -97 95 -105 62 -9 86 2 94 44 6 32 4 39 -22 60 -16 12 -34 23 -40 23 -29 0
-105 43 -133 75 -55 63 -34 147 43 181 34 15 55 11 105 -17z m-1389 -4 c0 -9
-9 -15 -25 -15 l-25 0 0 -169 c0 -168 0 -170 23 -173 14 -2 22 -10 22 -23 0
-18 -8 -20 -73 -23 -81 -3 -112 9 -90 35 6 8 20 12 30 10 17 -5 18 6 18 169
l0 174 -24 0 c-26 0 -40 12 -29 24 3 3 44 6 90 6 67 0 83 -3 83 -15z m375 -40
c4 -30 5 -62 1 -71 -10 -25 -30 -11 -37 27 -11 50 -40 69 -110 69 l-59 0 0
-75 0 -75 30 0 c31 0 33 3 45 53 5 24 8 27 20 17 11 -9 15 -34 15 -89 0 -103
-23 -138 -39 -59 -6 28 -11 33 -39 36 l-32 3 0 -75 0 -76 70 0 c67 0 70 1 85
30 8 16 15 40 15 53 0 32 27 57 36 33 11 -30 -1 -147 -17 -157 -7 -5 -78 -9
-155 -9 -108 0 -144 3 -153 14 -14 17 11 41 34 32 13 -5 15 17 15 169 l0 175
-24 0 c-26 0 -40 12 -29 24 3 3 77 6 164 6 l158 0 6 -55z m235 41 c0 -9 -12
-16 -27 -18 l-28 -3 -3 -167 -2 -166 57 -4 c71 -4 89 9 106 77 6 28 17 50 22
50 17 0 18 -150 2 -164 -10 -8 -59 -11 -158 -9 -136 3 -144 4 -144 23 0 14 7
20 22 20 13 0 23 4 23 8 0 4 0 81 0 172 l0 165 -25 0 c-16 0 -25 6 -25 15 0
12 17 15 90 15 71 0 90 -3 90 -14z m542 -51 c0 -36 1 -71 2 -77 1 -7 -6 -13
-14 -13 -8 0 -17 15 -22 40 -10 47 -43 85 -75 85 l-23 0 0 -173 0 -173 28 1
c20 0 27 -5 27 -20 0 -18 -8 -20 -88 -23 -65 -2 -91 1 -102 11 -18 19 -1 37
37 37 l28 0 0 170 0 170 -25 0 c-36 0 -71 -39 -80 -88 -4 -26 -12 -42 -21 -42
-10 0 -14 15 -14 58 0 109 -12 102 176 102 l164 0 2 -65z m-1164 -467 c3 -13
-3 -18 -22 -18 -26 0 -26 -1 -26 -75 l0 -75 80 0 80 0 0 74 c0 74 0 75 -27 78
-17 2 -28 9 -28 18 0 12 16 15 85 15 71 0 85 -3 88 -17 2 -12 -5 -17 -25 -20
l-28 -3 -3 -172 -2 -172 27 -3 c16 -2 29 -10 31 -19 3 -14 -9 -16 -85 -15 -71
1 -88 4 -88 16 0 9 11 16 28 18 27 3 27 4 27 83 l0 79 -80 0 -80 0 0 -80 c0
-70 2 -80 18 -80 10 0 23 -5 30 -12 17 -17 -5 -41 -27 -29 -9 5 -39 8 -66 6
-28 -2 -58 -2 -67 1 -25 7 -10 34 18 34 l24 0 0 175 0 175 -24 0 c-14 0 -28 5
-31 10 -14 23 10 31 88 28 69 -3 82 -6 85 -20z m620 -180 c2 -188 3 -198 22
-198 34 0 33 -20 -2 -21 -41 -2 -48 -3 -71 -13 -13 -6 -24 -3 -35 8 -16 15
-15 17 6 22 22 6 22 8 22 184 0 171 -1 179 -21 185 -34 11 -3 37 40 33 l36 -3
3 -197z m-175 32 c33 -28 63 -102 51 -122 -3 -4 -39 -8 -80 -8 l-74 0 0 -29
c0 -43 10 -61 37 -72 33 -12 61 4 79 47 17 40 37 36 28 -4 -9 -40 -46 -72 -86
-78 -29 -3 -43 2 -68 22 -83 70 -80 186 7 254 36 28 67 25 106 -10z m443 13
c33 -22 64 -83 64 -129 0 -46 -34 -120 -63 -136 -27 -15 -66 -18 -89 -6 -16 8
-18 3 -18 -45 0 -47 3 -55 21 -60 12 -3 19 -12 17 -19 -6 -18 -130 -18 -136 0
-2 7 5 16 17 19 20 5 21 11 21 173 0 159 -1 168 -20 173 -11 3 -20 12 -20 21
0 22 88 23 96 1 5 -12 9 -11 27 5 25 24 50 25 83 3z m249 5 c32 -15 62 -63 67
-108 l3 -35 -79 -3 -78 -3 6 -31 c3 -17 6 -37 6 -44 0 -8 11 -19 25 -24 35
-13 71 5 81 42 11 35 28 38 32 6 2 -15 -8 -34 -28 -55 -86 -88 -215 27 -179
159 12 47 69 108 99 108 11 0 31 -5 45 -12z m315 -20 c18 -33 6 -61 -30 -66
-31 -5 -43 18 -22 41 16 18 16 19 -3 16 -32 -7 -54 -65 -55 -146 0 -58 3 -73
15 -73 20 0 19 -29 -1 -37 -8 -3 -20 -1 -27 6 -6 6 -26 11 -44 11 -18 0 -33 5
-33 10 0 6 4 10 9 10 6 0 11 47 13 105 2 79 0 105 -9 105 -7 0 -13 9 -13 20 0
17 7 20 41 20 33 0 42 -4 46 -20 5 -19 6 -19 29 6 30 32 63 29 84 -8z m-803
-264 c-3 -3 -12 -4 -19 -1 -8 3 -5 6 6 6 11 1 17 -2 13 -5z m630 0 c-3 -3 -12
-4 -19 -1 -8 3 -5 6 6 6 11 1 17 -2 13 -5z"/>
<path d="M1408 1083 c7 -3 16 -2 19 1 4 3 -2 6 -13 5 -11 0 -14 -3 -6 -6z"/>
<path d="M1210 1311 c-5 -11 -10 -31 -10 -45 0 -24 3 -26 45 -26 49 0 52 6 34
59 -13 36 -52 43 -69 12z"/>
<path d="M1654 1294 c-20 -47 -17 -149 5 -167 54 -46 81 -15 81 91 0 86 -11
112 -46 112 -19 0 -28 -8 -40 -36z"/>
<path d="M1927 1323 c-2 -5 -7 -25 -11 -45 l-7 -38 47 0 46 0 -7 37 c-4 21 -9
41 -11 45 -7 10 -52 10 -57 1z"/>
<path d="M2198 1083 c7 -3 16 -2 19 1 4 3 -2 6 -13 5 -11 0 -14 -3 -6 -6z"/>
</g>
</svg>
